<mxfile host="Electron" modified="2023-11-22T03:40:15.960Z" agent="Mozilla/5.0 (Windows NT 10.0; Win64; x64) AppleWebKit/537.36 (KHTML, like Gecko) draw.io/22.1.2 Chrome/114.0.5735.289 Electron/25.9.4 Safari/537.36" etag="SSfuVZbB3aGye3iVnTcQ" version="22.1.2" type="device" pages="3">
  <diagram name="Parte 1" id="M2trhIGjdIh5F20qQOht">
    <mxGraphModel dx="1050" dy="621" grid="1" gridSize="10" guides="1" tooltips="1" connect="1" arrows="1" fold="1" page="1" pageScale="1" pageWidth="827" pageHeight="1169" math="0" shadow="0">
      <root>
        <mxCell id="0" />
        <mxCell id="1" parent="0" />
        <mxCell id="xF5qXMgO_giMCzWnj4xr-1" value="" style="rounded=0;whiteSpace=wrap;html=1;fillColor=none;dashed=1;dashPattern=8 8;" vertex="1" parent="1">
          <mxGeometry x="280" y="190" width="470" height="260" as="geometry" />
        </mxCell>
        <mxCell id="QohoacExlmjjKO-GYYum-3" value="Python Client&lt;br&gt;(Token ChatGPT)" style="outlineConnect=0;dashed=0;verticalLabelPosition=bottom;verticalAlign=top;align=center;html=1;shape=mxgraph.aws3.android;fillColor=#FFD44F;gradientColor=none;" vertex="1" parent="1">
          <mxGeometry x="306.5" y="278" width="73.5" height="84" as="geometry" />
        </mxCell>
        <mxCell id="QohoacExlmjjKO-GYYum-5" value="" style="endArrow=classic;html=1;rounded=0;entryX=0;entryY=0.25;entryDx=0;entryDy=0;" edge="1" parent="1" source="QohoacExlmjjKO-GYYum-3" target="QohoacExlmjjKO-GYYum-1">
          <mxGeometry width="50" height="50" relative="1" as="geometry">
            <mxPoint x="387.02" y="291.68600000000004" as="sourcePoint" />
            <mxPoint x="600" y="310" as="targetPoint" />
          </mxGeometry>
        </mxCell>
        <mxCell id="QohoacExlmjjKO-GYYum-7" value="Prompt" style="edgeLabel;html=1;align=center;verticalAlign=middle;resizable=0;points=[];" vertex="1" connectable="0" parent="QohoacExlmjjKO-GYYum-5">
          <mxGeometry x="-0.1901" y="-3" relative="1" as="geometry">
            <mxPoint as="offset" />
          </mxGeometry>
        </mxCell>
        <mxCell id="QohoacExlmjjKO-GYYum-6" value="" style="endArrow=classic;html=1;rounded=0;exitX=0;exitY=0.75;exitDx=0;exitDy=0;" edge="1" parent="1" source="QohoacExlmjjKO-GYYum-1" target="QohoacExlmjjKO-GYYum-3">
          <mxGeometry width="50" height="50" relative="1" as="geometry">
            <mxPoint x="390" y="350" as="sourcePoint" />
            <mxPoint x="390.8420000000001" y="349.60400000000004" as="targetPoint" />
          </mxGeometry>
        </mxCell>
        <mxCell id="QohoacExlmjjKO-GYYum-8" value="Result" style="edgeLabel;html=1;align=center;verticalAlign=middle;resizable=0;points=[];" vertex="1" connectable="0" parent="QohoacExlmjjKO-GYYum-6">
          <mxGeometry x="0.1874" y="-2" relative="1" as="geometry">
            <mxPoint as="offset" />
          </mxGeometry>
        </mxCell>
        <mxCell id="QohoacExlmjjKO-GYYum-1" value="" style="shape=image;verticalLabelPosition=bottom;labelBackgroundColor=default;verticalAlign=top;aspect=fixed;imageAspect=0;image=https://thumbs.dreamstime.com/b/minsk-belarus-openai-chatgpt-logo-artifical-chatbot-system-chat-bot-button-web-app-phone-icon-symbol-editorial-vector-278857334.jpg;" vertex="1" parent="1">
          <mxGeometry x="620" y="260" width="120" height="120" as="geometry" />
        </mxCell>
      </root>
    </mxGraphModel>
  </diagram>
  <diagram id="NC8Z4ar9gUErGZRn_mzv" name="Parte 2">
    <mxGraphModel dx="1050" dy="621" grid="1" gridSize="10" guides="1" tooltips="1" connect="1" arrows="1" fold="1" page="1" pageScale="1" pageWidth="827" pageHeight="1169" math="0" shadow="0">
      <root>
        <mxCell id="0" />
        <mxCell id="1" parent="0" />
        <mxCell id="26gygtAnNaceS7NRtWTy-1" value="" style="rounded=0;whiteSpace=wrap;html=1;fillColor=none;dashed=1;dashPattern=8 8;" vertex="1" parent="1">
          <mxGeometry x="170" y="210" width="590" height="360" as="geometry" />
        </mxCell>
        <mxCell id="pskvfLXr57f7JXPOHXPj-1" value="" style="shape=image;verticalLabelPosition=bottom;labelBackgroundColor=default;verticalAlign=top;aspect=fixed;imageAspect=0;image=https://thumbs.dreamstime.com/b/minsk-belarus-openai-chatgpt-logo-artifical-chatbot-system-chat-bot-button-web-app-phone-icon-symbol-editorial-vector-278857334.jpg;" vertex="1" parent="1">
          <mxGeometry x="540" y="260" width="120" height="120" as="geometry" />
        </mxCell>
        <mxCell id="pskvfLXr57f7JXPOHXPj-2" value="Python App&lt;br&gt;(Token API ChatGPT)" style="outlineConnect=0;dashed=0;verticalLabelPosition=bottom;verticalAlign=top;align=center;html=1;shape=mxgraph.aws3.android;fillColor=#FFD44F;gradientColor=none;" vertex="1" parent="1">
          <mxGeometry x="230" y="250" width="73.5" height="84" as="geometry" />
        </mxCell>
        <mxCell id="pskvfLXr57f7JXPOHXPj-4" value="" style="endArrow=classic;html=1;rounded=0;entryX=0;entryY=0.25;entryDx=0;entryDy=0;" edge="1" parent="1" source="pskvfLXr57f7JXPOHXPj-2" target="pskvfLXr57f7JXPOHXPj-1">
          <mxGeometry width="50" height="50" relative="1" as="geometry">
            <mxPoint x="306.02" y="268.68600000000004" as="sourcePoint" />
            <mxPoint x="499" y="290" as="targetPoint" />
          </mxGeometry>
        </mxCell>
        <mxCell id="pskvfLXr57f7JXPOHXPj-5" value="Prompt" style="edgeLabel;html=1;align=center;verticalAlign=middle;resizable=0;points=[];" vertex="1" connectable="0" parent="pskvfLXr57f7JXPOHXPj-4">
          <mxGeometry x="-0.1901" y="-3" relative="1" as="geometry">
            <mxPoint as="offset" />
          </mxGeometry>
        </mxCell>
        <mxCell id="pskvfLXr57f7JXPOHXPj-6" value="" style="endArrow=classic;html=1;rounded=0;exitX=0;exitY=0.75;exitDx=0;exitDy=0;entryX=1;entryY=0.5;entryDx=0;entryDy=0;entryPerimeter=0;" edge="1" parent="1" source="pskvfLXr57f7JXPOHXPj-1" target="pskvfLXr57f7JXPOHXPj-8">
          <mxGeometry width="50" height="50" relative="1" as="geometry">
            <mxPoint x="289" y="330" as="sourcePoint" />
            <mxPoint x="309" y="330" as="targetPoint" />
          </mxGeometry>
        </mxCell>
        <mxCell id="pskvfLXr57f7JXPOHXPj-7" value="Insert" style="edgeLabel;html=1;align=center;verticalAlign=middle;resizable=0;points=[];" vertex="1" connectable="0" parent="pskvfLXr57f7JXPOHXPj-6">
          <mxGeometry x="0.1874" y="-2" relative="1" as="geometry">
            <mxPoint as="offset" />
          </mxGeometry>
        </mxCell>
        <mxCell id="pskvfLXr57f7JXPOHXPj-8" value="Vector Database in Memory" style="shape=cylinder3;whiteSpace=wrap;html=1;boundedLbl=1;backgroundOutline=1;size=15;" vertex="1" parent="1">
          <mxGeometry x="384" y="400" width="60" height="80" as="geometry" />
        </mxCell>
        <mxCell id="pskvfLXr57f7JXPOHXPj-9" value="" style="endArrow=classic;html=1;rounded=0;exitX=0;exitY=0.5;exitDx=0;exitDy=0;exitPerimeter=0;" edge="1" parent="1" source="pskvfLXr57f7JXPOHXPj-8" target="pskvfLXr57f7JXPOHXPj-2">
          <mxGeometry width="50" height="50" relative="1" as="geometry">
            <mxPoint x="390" y="350" as="sourcePoint" />
            <mxPoint x="306.51" y="317" as="targetPoint" />
          </mxGeometry>
        </mxCell>
        <mxCell id="dAKR40DrR1aZQtVC5gmH-1" value="Result" style="edgeLabel;html=1;align=center;verticalAlign=middle;resizable=0;points=[];" vertex="1" connectable="0" parent="pskvfLXr57f7JXPOHXPj-9">
          <mxGeometry x="0.0919" y="2" relative="1" as="geometry">
            <mxPoint as="offset" />
          </mxGeometry>
        </mxCell>
        <mxCell id="1hHfc9OywtUMnChzHIMT-1" value="doc1, &quot;lorem ipsum..&quot;&lt;br&gt;doc2, &quot;Ut enim ad...&quot;&lt;br&gt;..." style="text;html=1;strokeColor=none;fillColor=none;align=center;verticalAlign=middle;whiteSpace=wrap;rounded=0;shadow=1;fontStyle=1;fontColor=#737373;" vertex="1" parent="1">
          <mxGeometry x="600" y="400" width="170" height="50" as="geometry" />
        </mxCell>
        <mxCell id="1hHfc9OywtUMnChzHIMT-2" value="doc1, [0.1, -0.8, 0.9, ...]&lt;br&gt;doc2, [0.1, 0.7, -0.2, ...]&lt;br&gt;..." style="text;html=1;strokeColor=none;fillColor=none;align=center;verticalAlign=middle;whiteSpace=wrap;rounded=0;shadow=1;fontStyle=1;fontColor=#737373;" vertex="1" parent="1">
          <mxGeometry x="460" y="530" width="140" height="30" as="geometry" />
        </mxCell>
        <mxCell id="1hHfc9OywtUMnChzHIMT-3" value="" style="endArrow=classic;html=1;rounded=0;strokeColor=#575757;startSize=15;endSize=10;" edge="1" parent="1">
          <mxGeometry width="50" height="50" relative="1" as="geometry">
            <mxPoint x="650" y="460" as="sourcePoint" />
            <mxPoint x="600" y="500" as="targetPoint" />
          </mxGeometry>
        </mxCell>
        <mxCell id="pzGrrWcmF-2ix5HONxLn-1" value="1. doc1, score: 0.99&lt;br&gt;2. doc4, score 0.77&lt;br&gt;..." style="text;html=1;strokeColor=none;fillColor=none;align=center;verticalAlign=middle;whiteSpace=wrap;rounded=0;shadow=1;fontStyle=1;fontColor=#737373;" vertex="1" parent="1">
          <mxGeometry x="181.75" y="400" width="170" height="50" as="geometry" />
        </mxCell>
      </root>
    </mxGraphModel>
  </diagram>
  <diagram id="KGhm1MBDm7brW4euwDCU" name="Parte 3">
    <mxGraphModel dx="1050" dy="621" grid="1" gridSize="10" guides="1" tooltips="1" connect="1" arrows="1" fold="1" page="1" pageScale="1" pageWidth="827" pageHeight="1169" math="0" shadow="0">
      <root>
        <mxCell id="0" />
        <mxCell id="1" parent="0" />
        <mxCell id="0ts6H8Uc2uDWb6Eidwio-19" value="" style="rounded=0;whiteSpace=wrap;html=1;fillColor=none;dashed=1;" vertex="1" parent="1">
          <mxGeometry x="130" y="210" width="640" height="370" as="geometry" />
        </mxCell>
        <mxCell id="0ts6H8Uc2uDWb6Eidwio-2" value="Open AI&#xa;API" style="shape=image;verticalLabelPosition=bottom;labelBackgroundColor=default;verticalAlign=top;aspect=fixed;imageAspect=0;image=https://thumbs.dreamstime.com/b/minsk-belarus-openai-chatgpt-logo-artifical-chatbot-system-chat-bot-button-web-app-phone-icon-symbol-editorial-vector-278857334.jpg;" vertex="1" parent="1">
          <mxGeometry x="580" y="240" width="120" height="120" as="geometry" />
        </mxCell>
        <mxCell id="0ts6H8Uc2uDWb6Eidwio-3" value="Python&lt;br&gt;App&lt;br&gt;(Token API ChatGPT&lt;br&gt;Token API Pinecone client)" style="outlineConnect=0;dashed=0;verticalLabelPosition=bottom;verticalAlign=top;align=center;html=1;shape=mxgraph.aws3.android;fillColor=#FFD44F;gradientColor=none;" vertex="1" parent="1">
          <mxGeometry x="210" y="230" width="73.5" height="84" as="geometry" />
        </mxCell>
        <mxCell id="0ts6H8Uc2uDWb6Eidwio-5" value="" style="endArrow=classic;html=1;rounded=0;entryX=0;entryY=0.25;entryDx=0;entryDy=0;" edge="1" parent="1" source="0ts6H8Uc2uDWb6Eidwio-3" target="0ts6H8Uc2uDWb6Eidwio-2">
          <mxGeometry width="50" height="50" relative="1" as="geometry">
            <mxPoint x="158" y="294.3740648379053" as="sourcePoint" />
            <mxPoint x="499" y="290" as="targetPoint" />
          </mxGeometry>
        </mxCell>
        <mxCell id="0ts6H8Uc2uDWb6Eidwio-6" value="Text query" style="edgeLabel;html=1;align=center;verticalAlign=middle;resizable=0;points=[];" vertex="1" connectable="0" parent="0ts6H8Uc2uDWb6Eidwio-5">
          <mxGeometry x="-0.1901" y="-3" relative="1" as="geometry">
            <mxPoint as="offset" />
          </mxGeometry>
        </mxCell>
        <mxCell id="0ts6H8Uc2uDWb6Eidwio-7" value="" style="endArrow=classic;html=1;rounded=0;exitX=0;exitY=0.75;exitDx=0;exitDy=0;entryX=1;entryY=0.5;entryDx=0;entryDy=0;entryPerimeter=0;" edge="1" parent="1" source="0ts6H8Uc2uDWb6Eidwio-2" target="0ts6H8Uc2uDWb6Eidwio-9">
          <mxGeometry width="50" height="50" relative="1" as="geometry">
            <mxPoint x="289" y="330" as="sourcePoint" />
            <mxPoint x="309" y="330" as="targetPoint" />
          </mxGeometry>
        </mxCell>
        <mxCell id="0ts6H8Uc2uDWb6Eidwio-14" value="Insert" style="edgeLabel;html=1;align=center;verticalAlign=middle;resizable=0;points=[];" vertex="1" connectable="0" parent="0ts6H8Uc2uDWb6Eidwio-7">
          <mxGeometry x="0.0364" y="4" relative="1" as="geometry">
            <mxPoint as="offset" />
          </mxGeometry>
        </mxCell>
        <mxCell id="0ts6H8Uc2uDWb6Eidwio-9" value="Vector Database pinecone" style="shape=cylinder3;whiteSpace=wrap;html=1;boundedLbl=1;backgroundOutline=1;size=15;" vertex="1" parent="1">
          <mxGeometry x="384" y="480" width="60" height="80" as="geometry" />
        </mxCell>
        <mxCell id="0ts6H8Uc2uDWb6Eidwio-10" value="" style="endArrow=classic;html=1;rounded=0;exitX=0;exitY=0.5;exitDx=0;exitDy=0;exitPerimeter=0;" edge="1" parent="1" source="0ts6H8Uc2uDWb6Eidwio-9" target="0ts6H8Uc2uDWb6Eidwio-3">
          <mxGeometry width="50" height="50" relative="1" as="geometry">
            <mxPoint x="390" y="350" as="sourcePoint" />
            <mxPoint x="158" y="334.16564417177915" as="targetPoint" />
          </mxGeometry>
        </mxCell>
        <mxCell id="0ts6H8Uc2uDWb6Eidwio-16" value="Result" style="edgeLabel;html=1;align=center;verticalAlign=middle;resizable=0;points=[];" vertex="1" connectable="0" parent="0ts6H8Uc2uDWb6Eidwio-10">
          <mxGeometry x="-0.2931" y="3" relative="1" as="geometry">
            <mxPoint as="offset" />
          </mxGeometry>
        </mxCell>
        <mxCell id="0ts6H8Uc2uDWb6Eidwio-12" value="&quot;What...?&quot;" style="text;html=1;strokeColor=none;fillColor=none;align=center;verticalAlign=middle;whiteSpace=wrap;rounded=0;shadow=1;fontStyle=1;fontColor=#737373;" vertex="1" parent="1">
          <mxGeometry x="350" y="285" width="110" height="30" as="geometry" />
        </mxCell>
        <mxCell id="0ts6H8Uc2uDWb6Eidwio-13" value="1. doc1, score: 0.99&lt;br&gt;2. doc4, score 0.77&lt;br&gt;..." style="text;html=1;strokeColor=none;fillColor=none;align=center;verticalAlign=middle;whiteSpace=wrap;rounded=0;shadow=1;fontStyle=1;fontColor=#737373;" vertex="1" parent="1">
          <mxGeometry x="120" y="400" width="170" height="50" as="geometry" />
        </mxCell>
        <mxCell id="0ts6H8Uc2uDWb6Eidwio-15" value="doc1, &quot;lorem ipsum..&quot;&lt;br&gt;doc2, &quot;Ut enim ad...&quot;&lt;br&gt;..." style="text;html=1;strokeColor=none;fillColor=none;align=center;verticalAlign=middle;whiteSpace=wrap;rounded=0;shadow=1;fontStyle=1;fontColor=#737373;" vertex="1" parent="1">
          <mxGeometry x="600" y="400" width="170" height="50" as="geometry" />
        </mxCell>
        <mxCell id="0ts6H8Uc2uDWb6Eidwio-17" value="doc1, [0.1, -0.8, 0.9, ...]&lt;br&gt;doc2, [0.1, 0.7, -0.2, ...]&lt;br&gt;..." style="text;html=1;strokeColor=none;fillColor=none;align=center;verticalAlign=middle;whiteSpace=wrap;rounded=0;shadow=1;fontStyle=1;fontColor=#737373;" vertex="1" parent="1">
          <mxGeometry x="460" y="530" width="140" height="30" as="geometry" />
        </mxCell>
        <mxCell id="0ts6H8Uc2uDWb6Eidwio-18" value="" style="endArrow=classic;html=1;rounded=0;strokeColor=#575757;startSize=15;endSize=10;" edge="1" parent="1">
          <mxGeometry width="50" height="50" relative="1" as="geometry">
            <mxPoint x="650" y="460" as="sourcePoint" />
            <mxPoint x="600" y="500" as="targetPoint" />
          </mxGeometry>
        </mxCell>
        <mxCell id="OtPQD_7NGxjExZJl0zMW-1" value="" style="rounded=0;whiteSpace=wrap;html=1;fillColor=none;dashed=1;" vertex="1" parent="1">
          <mxGeometry x="370" y="470" width="90" height="100" as="geometry" />
        </mxCell>
      </root>
    </mxGraphModel>
  </diagram>
</mxfile>
